<svg width="256" height="256" viewBox="0 0 256 256" xmlns="http://www.w3.org/2000/svg" role="img" aria-labelledby="title desc">
  <title id="title">SiamEZ Logo</title>
  <desc id="desc">Stylized yellow elephant on a blue circle with SiamEZ text</desc>
  <defs>
    <linearGradient id="bg" x1="0%" y1="0%" x2="100%" y2="100%">
      <stop offset="0%" stop-color="#0052A3" />
      <stop offset="50%" stop-color="#0064D2" />
      <stop offset="100%" stop-color="#003B80" />
    </linearGradient>
  </defs>
  <circle cx="128" cy="128" r="124" fill="url(#bg)" />
  <g transform="translate(40,42)" fill="#F9C034">
    <path d="M126 26c-10.5 0-19 7.8-19 18.2 0 3.2.7 6 1.8 8.5C102.2 44.2 91.7 40 80.2 40 54 40 33 61.2 33 88.2 33 107.5 41.8 126 54.4 138H38.5C25.3 138 15 127.4 15 113.4V92c0-6.5-4.2-10.8-9.8-10.8-2.7 0-4.9.7-7.2 2.2C2.3 67.3 17.5 54 36 54c5.2 0 10.1.9 14.6 2.6C57.6 42.3 68 32 80.2 32c6.6 0 12.8 2 18 5.7 5-7.1 13-11.7 22-11.7 15.5 0 28.1 12.8 28.1 28.4 0 3.4-.6 6.8-1.9 9.9-3.8 9.3-11.5 15.8-21.2 17.9l-9 1.9c-4.4.9-7.4 4.8-7.4 9.4V138h-16V91.9c0-12 8.1-22.3 19.7-24.7l9-1.9c4.7-1 8.4-3.9 10.3-8.4.7-1.7 1-3.7 1-5.8 0-8.2-6.4-15.1-14.9-15.1z" />
    <circle cx="136" cy="42" r="4.5" fill="#003B80" />
  </g>
  <text x="128" y="214" text-anchor="middle" font-family="system-ui, -apple-system, BlinkMacSystemFont, 'Segoe UI', sans-serif" font-size="30" font-weight="700" fill="#FFFFFF">
    SiamEZ
  </text>
</svg>
